<?xml version="1.0" standalone="no"?>
<!DOCTYPE svg PUBLIC "-//W3C//DTD SVG 20010904//EN"
 "http://www.w3.org/TR/2001/REC-SVG-20010904/DTD/svg10.dtd">
<svg version="1.0" xmlns="http://www.w3.org/2000/svg"
 width="658.000000pt" height="658.000000pt" viewBox="0 0 658.000000 658.000000"
 preserveAspectRatio="xMidYMid meet">
<metadata>
Created by potrace 1.11, written by Peter Selinger 2001-2013
</metadata>
<g transform="translate(0.000000,658.000000) scale(0.100000,-0.100000)"
fill="#000000" stroke="none">
<path d="M6485 4442 c-11 -2 -51 -22 -90 -43 -38 -21 -102 -47 -141 -57 -40
-11 -80 -25 -90 -30 -33 -17 -167 -59 -224 -71 -106 -20 -238 -27 -335 -17
-307 31 -391 24 -640 -49 -87 -26 -112 -47 -191 -154 -40 -55 -96 -90 -137
-86 -12 2 -83 32 -157 68 -230 110 -414 178 -545 202 -16 3 -43 7 -60 11 -142
27 -373 24 -510 -6 -22 -5 -60 -11 -85 -15 -132 -19 -255 -60 -395 -131 -60
-31 -171 -87 -245 -125 -75 -37 -145 -76 -157 -86 -12 -10 -35 -28 -50 -40
-44 -34 -104 -94 -153 -153 -25 -30 -74 -86 -108 -124 -124 -136 -208 -283
-256 -449 -38 -130 -65 -186 -97 -203 -16 -8 -32 -14 -36 -14 -7 1 -96 -11
-113 -15 -3 -1 -36 -4 -75 -9 -199 -21 -246 -30 -403 -83 -176 -59 -215 -79
-423 -219 -95 -64 -196 -126 -223 -139 -28 -13 -76 -35 -107 -49 -55 -25 -132
-45 -258 -66 -88 -16 -168 -47 -173 -68 -13 -49 32 -85 107 -84 59 0 236 11
265 17 167 31 284 87 509 245 177 124 247 152 457 186 20 3 46 8 58 10 11 3
82 7 156 10 192 7 251 18 361 70 52 24 103 44 113 44 30 0 12 -24 -39 -51 -26
-15 -52 -35 -58 -44 -16 -29 9 -88 60 -145 70 -78 121 -108 358 -205 110 -46
167 -74 217 -107 64 -42 94 -42 83 0 -4 15 -1 28 6 33 11 6 109 1 118 -7 6 -6
61 26 61 36 0 5 14 16 30 25 36 19 37 37 6 92 l-24 42 81 25 c177 53 205 59
287 61 67 1 106 -4 184 -27 183 -52 239 -58 501 -53 132 3 254 7 270 9 59 9
241 21 320 21 70 -1 88 -5 140 -32 52 -28 76 -33 180 -42 72 -6 143 -18 175
-30 30 -11 92 -27 138 -36 79 -16 84 -16 109 2 14 10 44 30 67 44 65 40 78
118 28 162 -22 18 -90 36 -172 45 -91 10 -90 26 6 86 98 62 187 153 271 274
37 53 88 122 114 152 63 74 156 206 264 374 104 161 149 215 217 260 56 38
112 105 223 269 115 170 237 331 279 367 25 22 36 41 36 59 0 41 -42 72 -85
63z m-885 -1142 c-9 -16 -9 -25 1 -36 9 -11 7 -18 -13 -33 -13 -11 -37 -43
-53 -72 -54 -100 -104 -163 -138 -174 -27 -8 -31 -14 -29 -37 2 -15 -3 -30
-11 -35 -7 -4 -18 -16 -23 -25 -5 -9 -40 -48 -78 -87 -62 -65 -71 -71 -102
-67 -37 5 -49 -6 -49 -44 0 -19 -6 -25 -27 -27 -29 -2 -44 11 -49 41 -2 11 -9
21 -15 23 -14 5 -24 -28 -24 -77 0 -35 -2 -36 -56 -53 -41 -13 -60 -14 -75 -7
-19 11 -19 12 6 44 30 40 32 56 4 56 -11 0 -18 -4 -15 -8 2 -4 -5 -14 -16 -21
-19 -12 -20 -11 -15 11 5 16 1 27 -14 38 -20 16 -20 16 -1 40 28 36 34 91 11
97 -17 5 -17 7 -4 26 8 12 15 32 15 45 0 14 8 26 23 31 27 11 36 3 43 -35 3
-16 12 -37 21 -46 11 -12 13 -26 8 -45 -8 -29 -9 -72 -4 -135 2 -28 7 -38 20
-38 22 0 25 12 23 93 0 37 2 67 5 68 3 0 16 2 29 5 14 2 29 -4 39 -16 10 -11
21 -20 25 -20 15 0 36 56 33 93 -2 36 -1 37 16 21 10 -9 16 -21 13 -26 -3 -5
-3 -35 1 -66 6 -50 9 -54 20 -38 8 10 11 31 8 51 -5 30 -3 32 19 28 20 -4 28
1 40 28 16 32 16 39 3 92 -9 35 13 37 58 4 40 -29 57 -29 68 1 10 27 -16 58
-58 67 -39 9 -103 37 -110 48 -3 6 -2 8 3 5 5 -3 31 -9 58 -12 27 -4 57 -11
67 -16 11 -7 20 -5 28 4 16 19 -40 93 -84 112 -36 14 -89 76 -83 94 4 12 102
-37 154 -76 38 -30 54 -30 54 -3 0 18 4 20 23 14 55 -17 68 -17 86 -1 10 9 21
30 24 45 4 20 18 34 54 53 26 14 49 24 51 22 2 -1 -2 -12 -8 -24z m-440 -311
c-17 -14 -16 -17 11 -47 22 -25 27 -37 20 -54 -9 -26 -24 -27 -27 -3 -1 9 -20
39 -42 68 -45 57 -62 95 -62 134 0 24 3 22 59 -28 56 -51 58 -55 41 -70z
m-415 -264 c-2 -18 2 -38 10 -49 17 -22 4 -46 -25 -46 -14 0 -17 10 -19 53 -1
28 -5 66 -10 82 -5 19 -4 37 3 48 10 16 13 14 29 -20 10 -22 15 -51 12 -68z
m-515 -30 c24 -105 33 -122 45 -85 8 25 24 26 32 3 11 -32 35 -52 68 -59 39
-7 76 -58 49 -68 -30 -11 -51 -6 -98 26 -46 30 -49 30 -59 13 -19 -35 -60 -65
-91 -67 -17 -1 -80 -2 -141 -3 -60 -1 -130 -6 -155 -10 -43 -7 -47 -5 -58 19
-14 31 -28 33 -37 6 -3 -11 -13 -20 -21 -20 -21 0 -17 38 6 52 23 15 25 45 5
72 -14 19 -16 19 -34 2 -19 -17 -20 -17 -30 2 -8 16 -7 21 5 26 21 8 91 -11
101 -27 4 -7 23 -20 42 -30 38 -20 51 -12 51 30 0 12 4 24 9 27 10 7 31 -37
31 -67 0 -34 14 -51 28 -35 13 16 0 82 -27 136 -14 29 -15 43 -7 65 12 32 29
31 31 -4 1 -13 7 -41 14 -62 7 -21 14 -46 16 -55 2 -9 4 -18 4 -20 1 -2 11 4
23 12 21 15 23 15 38 -15 18 -37 34 -39 38 -5 5 39 42 42 73 6 19 -22 28 -27
37 -18 7 7 8 17 3 27 -5 9 -11 42 -14 74 -4 36 -14 69 -28 88 -20 29 -20 31
-4 50 10 10 21 19 25 19 3 0 17 -47 30 -105z m-1215 -65 c-1 -14 -6 -33 -10
-42 -6 -14 -2 -18 16 -19 13 -1 29 -2 34 -4 6 -1 17 -3 25 -4 20 -3 -71 -38
-140 -55 -52 -12 -92 -9 -91 7 5 42 -20 52 -39 16 -9 -16 -19 -20 -53 -17 -29
2 -42 8 -42 18 0 10 9 14 29 13 16 -1 48 9 72 23 35 21 44 23 51 11 4 -8 19
-14 33 -13 19 1 24 -3 22 -17 -3 -15 0 -16 15 -9 44 24 62 61 49 100 -5 15 -3
29 5 38 12 14 14 14 20 -3 3 -10 5 -29 4 -43z m1740 -91 c-5 -30 -4 -39 8 -39
18 0 77 -29 77 -39 0 -4 -9 -17 -21 -30 -19 -20 -22 -21 -38 -7 -10 9 -25 16
-34 16 -8 0 -19 9 -22 20 -8 24 -14 25 -44 3 -24 -16 -24 -16 -17 8 5 13 9 34
10 46 3 23 64 74 79 65 5 -2 5 -22 2 -43z"/>
</g>
</svg>
