<?xml version="1.0" encoding="utf-8"?>
<!-- Generator: Adobe Illustrator 24.2.1, SVG Export Plug-In . SVG Version: 6.00 Build 0)  -->
<svg version="1.1" id="Layer_1" xmlns="http://www.w3.org/2000/svg" xmlns:xlink="http://www.w3.org/1999/xlink" x="0px" y="0px"
	 viewBox="0 0 512 512" style="enable-background:new 0 0 512 512;" xml:space="preserve">
<style type="text/css">
	.st0{fill:#FFC04D;}
</style>
<path class="st0" d="M184.2,20h0.3c5.5,0,10-4.5,10-10s-4.5-10-10-10h-0.3c-5.5,0-10,4.5-10,10S178.7,20,184.2,20z"/>
<path class="st0" d="M445.8,314.2c-1.9-15.9-5.9-30.7-11.8-44.3c-0.2-0.5-0.4-1-0.7-1.5c-0.4-0.9-0.8-1.9-1.3-2.8
	c-0.5-1.1-1-2.2-1.6-3.2c-0.1-0.3-0.3-0.5-0.4-0.8c-5.4-10.6-12.1-20.4-19.8-29.2c-0.3-0.3-0.6-0.7-1-0.9c-1.6-1.8-3.2-3.5-4.9-5.1
	v-88.1c0-28.9-23.4-52.5-52.2-52.5c0,0,0,0,0,0c0,0,0.1-0.1,0.1-0.1C367.8,62.8,384,39.2,384,10c0-5.5-4.5-10-10-10H224.4
	c-5.5,0-10,4.5-10,10s4.5,10,10,10h138.7c-1.1,6.2-3.1,12.3-5.7,18.2H156.5c-2.6-6-4.7-12-5.7-18.2h4.7c5.5,0,10-4.5,10-10
	s-4.5-10-10-10h-15.5c-5.5,0-10,4.5-10,10c0,29.2,16.2,52.8,31.9,75.6c0,0,0.1,0.1,0.1,0.1c0,0,0,0,0,0c-28.8,0-52.2,23.5-52.2,52.5
	v88.1c-1.7,1.7-3.3,3.4-4.9,5.1c-0.3,0.3-0.7,0.6-1,0.9c-7.8,8.8-14.4,18.5-19.8,29.2c-0.1,0.3-0.3,0.5-0.4,0.8
	c-0.5,1.1-1.1,2.1-1.6,3.2c-0.4,0.9-0.9,1.9-1.3,2.8c-0.2,0.5-0.4,1-0.7,1.5c-5.9,13.6-9.9,28.5-11.8,44.3
	c-4.3,36.1,3,74.8,20.6,109c18.9,36.9,48.6,67.2,85.8,87.6c1.5,0.8,3.1,1.2,4.8,1.2h155.2c1.7,0,3.3-0.4,4.8-1.2
	c37.2-20.3,66.9-50.6,85.8-87.6C442.8,389,450.1,350.2,445.8,314.2z M206.6,166.7h100.8c2,7.2,5.2,14.6,9.8,22.3H196.8
	C201.4,181.3,204.6,173.9,206.6,166.7z M179,209h156c15.8,4.4,29.9,11.2,42.1,20H136.9C149.1,220.2,163.2,213.4,179,209z M115.9,249
	h282.2c5,6.1,9.5,12.8,13.3,20H102.6C106.4,261.9,110.8,255.2,115.9,249z M352.1,105.8c17.8,0,32.2,14.6,32.2,32.5v71.6
	c-12.5-8.5-26.6-15.1-42.1-19.6c-14.8-19.1-20-36.4-16.4-54.2c1.8-9,5.8-17.7,10.8-26.5C340.9,106.8,345.1,105.8,352.1,105.8z
	 M346.4,58.2c-3.4,5.3-7.1,10.7-10.8,16.1c-5.1,7.4-10.3,15-15,22.9c-0.2,0.3-0.3,0.5-0.5,0.8c-8.7,14.9-15.5,30.9-15.5,48.7h-95.3
	c-0.1-17.7-6.8-33.7-15.5-48.7c-0.1-0.3-0.3-0.5-0.5-0.8c-4.7-7.9-9.9-15.5-15-22.9c-3.7-5.4-7.4-10.7-10.8-16.1H346.4z
	 M129.7,138.2c0-17.9,14.5-32.5,32.2-32.5c7,0,11.2,1,15.5,3.8c5,8.7,8.9,17.4,10.8,26.5c3.6,17.8-1.6,35.1-16.4,54.2
	c-15.5,4.5-29.6,11.2-42.1,19.6V138.2z M381.6,452H132.4c-5.6-6.3-10.7-13-15.4-20h279.8C392.3,439,387.1,445.7,381.6,452z M332,492
	H182c-10.7-6-20.4-12.7-29.1-20h208.2C352.4,479.3,342.7,486,332,492z M408.5,412h-303c-15.7-32-20.9-66.1-17.4-95.4
	c1.1-9.7,3.2-18.9,6-27.5h325.9c2.8,8.7,4.8,17.8,6,27.5C429.4,345.9,424.2,380,408.5,412z"/>
<path class="st0" d="M365.6,382h-41c-5.5,0-10,4.5-10,10s4.5,10,10,10h41c5.5,0,10-4.5,10-10S371.1,382,365.6,382z"/>
<path class="st0" d="M394.5,382h-0.2c-5.5,0-10,4.5-10,10s4.5,10,10,10h0.2c5.5,0,10-4.5,10-10S400.1,382,394.5,382z"/>
</svg>
